<?xml version="1.0" encoding="UTF-8" standalone="no"?>
<!-- Created with Inkscape (http://www.inkscape.org/) -->

<svg
   xmlns:dc="http://purl.org/dc/elements/1.1/"
   xmlns:cc="http://creativecommons.org/ns#"
   xmlns:rdf="http://www.w3.org/1999/02/22-rdf-syntax-ns#"
   xmlns:svg="http://www.w3.org/2000/svg"
   xmlns="http://www.w3.org/2000/svg"
   xmlns:sodipodi="http://sodipodi.sourceforge.net/DTD/sodipodi-0.dtd"
   xmlns:inkscape="http://www.inkscape.org/namespaces/inkscape"
   width="250"
   height="250"
   id="svg2"
   version="1.1"
   inkscape:version="0.48+devel r10105"
   sodipodi:docname="al-quran-calligraphy.svg">
  <defs
     id="defs" />
  <sodipodi:namedview
     id="base"
     pagecolor="#ffffff"
     bordercolor="#666666"
     borderopacity="1.0"
     inkscape:pageopacity="0.0"
     inkscape:pageshadow="2"
     inkscape:zoom="1.8101934"
     inkscape:cx="80.122111"
     inkscape:cy="103.98623"
     inkscape:document-units="px"
     inkscape:current-layer="layer_back"
     showgrid="false"
     inkscape:window-width="1262"
     inkscape:window-height="724"
     inkscape:window-x="33"
     inkscape:window-y="0"
     inkscape:window-maximized="0"
     showguides="true"
     inkscape:guide-bbox="true"
     fit-margin-top="0"
     fit-margin-left="0"
     fit-margin-right="0"
     fit-margin-bottom="0"
     showborder="true"
     inkscape:showpageshadow="false"
     borderlayer="true" />
  <metadata
     id="metadata">
    <rdf:RDF>
      <cc:Work
         rdf:about="">
        <dc:format>image/svg+xml</dc:format>
        <dc:type
           rdf:resource="http://purl.org/dc/dcmitype/StillImage" />
        <dc:title></dc:title>
      </cc:Work>
    </rdf:RDF>
  </metadata>
  <g
     inkscape:label="Back"
     inkscape:groupmode="layer"
     id="layer_back"
     transform="translate(-51.256451,-118.6709)">
    <path
       style="opacity:0.1;fill:#000000"
       d="m 143.2885,350.11418 c -5.56866,-3.70192 -7.9751,-8.356 -8.86593,-17.14673 l 0.52402,-5.07745 -7.37917,0.80363 c -11.01464,1.19956 -16.55297,-0.10246 -21.4025,-3.29863 -7.882471,-5.19503 -11.137651,-13.24093 -10.231111,-25.28858 0.1933,-2.56863 0.006,-4.93843 -0.41546,-5.26624 -0.42178,-0.32781 -2.53596,0.56877 -4.69815,1.9924 -7.85092,5.16919 -17.049751,0.5332 -20.236887,-10.19891 -1.652645,-5.56499 -0.707979,-10.79909 3.670389,-20.33628 2.24086,-4.8812 3.524368,-8.72834 2.993083,-8.97126 -0.511623,-0.23393 -2.603307,-1.93479 -4.648253,-3.77968 -8.252086,-7.44481 -8.094452,-18.13566 0.471701,-31.99371 4.068781,-6.58233 4.690384,-8.22335 4.648286,-12.27188 -0.06896,-6.62969 2.174967,-11.5803 8.884391,-19.60102 4.18567,-5.00375 5.85274,-7.76933 5.85779,-9.71781 0.004,-1.49797 0.93131,-4.97199 2.06094,-7.72005 l 2.05391,-4.99646 13.102161,-5.081 c 22.8258,-8.85184 41.5002,-13.8052 69.49406,-18.4332 17.83789,-2.949 23.20816,-2.87802 25.54515,0.33761 2.28107,3.13868 0.47971,9.72371 -4.35457,15.91859 -3.92456,5.02913 -23.1371,23.52107 -23.71016,22.82087 -0.64683,-0.79037 6.00519,-9.35497 9.84445,-12.67497 14.30737,-12.3722 16.41849,-15.19849 13.78955,-18.46083 -1.45638,-1.80726 -11.33895,-2.68883 -18.64041,-1.6628 -22.1934,3.1187 -81.03752,19.68252 -84.149801,23.68704 -0.35907,0.46201 9.338231,9.50744 21.549561,20.10094 l 22.20246,19.26091 6.59348,-1.32702 c 3.62642,-0.72986 8.65713,-1.10514 11.17933,-0.83397 2.52221,0.27117 4.62118,0.16434 4.66438,-0.23741 0.0432,-0.40175 -0.77115,-5.46288 -1.80965,-11.24694 -2.14981,-11.97387 -1.99952,-25.49496 0.33263,-29.92641 l 1.46803,-2.78947 1.54929,4.58752 c 0.85211,2.52314 2.1643,6.26646 2.91599,8.31849 1.34122,3.66136 1.33208,3.7178 -0.49121,3.02551 -2.41184,-0.91577 -2.59397,0.82572 -1.14011,10.90269 1.41877,9.83371 3.85343,15.25931 9.68452,21.58178 4.09444,4.43946 4.55958,5.41819 4.1934,8.82398 -0.50571,4.70363 -1.48229,5.62029 -3.53487,3.31803 -4.68435,-5.25414 -17.10191,-9.12335 -23.83027,-7.4253 -2.13713,0.53935 -1.05891,1.92497 12.76735,16.40711 17.52742,18.35888 25.51021,26.27021 26.62883,26.39048 0.99497,0.10697 1.0194,-2.08517 0.45523,-40.84774 -0.25307,-17.38715 -0.31726,-32.94175 -0.14264,-34.56578 0.3823,-3.55596 1.50072,-5.93353 2.72904,-5.80148 1.18514,0.12742 6.94973,16.29289 6.68572,18.74853 -0.19782,1.84 -0.26115,1.83788 -1.95785,-0.0652 -1.69512,-1.90132 -1.75979,-1.90517 -1.94437,-0.11571 -0.10554,1.018 0.0734,15.80541 0.3964,32.86082 0.32303,17.0554 0.5808,31.07234 0.57276,31.14874 -0.008,0.0764 0.65874,0.48398 1.48178,0.90568 2.10254,1.07732 8.49442,-0.0888 11.78694,-2.15032 4.0766,-2.55249 4.03943,-1.11616 1.86149,-71.93411 -0.56685,-18.43247 -0.95634,-35.71606 -0.86552,-38.40799 0.17373,-5.14823 1.77304,-8.39849 3.21002,-6.5237 1.08879,1.42049 6.0139,14.75086 6.59313,17.84506 0.45813,2.44725 0.45027,2.44934 -1.91534,0.50825 l -2.37539,-1.94912 -0.39799,3.70147 c -0.21885,2.03581 0.17869,23.12765 0.88345,46.87074 1.29269,43.55007 1.12382,47.22521 -2.42059,52.68559 -1.94332,2.99376 -8.73631,7.09163 -13.42648,8.09949 l -3.31046,0.71139 -1.90537,12.77812 c -1.04795,7.02796 -2.66206,14.46514 -3.58688,16.52706 -1.63012,3.63425 -1.66271,3.39027 -1.06585,-7.97407 0.98209,-18.69943 0.69968,-21.99498 -2.0026,-23.36909 -4.14269,-2.10656 -9.83151,-7.59095 -19.19499,-18.50523 -8.56476,-9.98328 -19.21894,-20.92585 -20.50942,-21.0646 -0.30709,-0.033 1.12035,2.6625 3.17215,5.99005 4.46777,7.24578 5.9997,13.08179 5.25414,20.0161 -0.96827,9.00618 -7.21114,12.70821 -30.32539,17.98304 -14.18482,3.23708 -19.8839,5.4951 -26.23876,10.39602 -4.114321,3.17298 -4.914291,4.31296 -5.255821,7.48947 -0.53428,4.96927 0.87698,12.1542 3.199791,16.29057 3.97509,7.07866 18.0322,12.3126 28.73699,10.69973 l 4.95469,-0.7465 4.02718,-7.40866 c 2.21498,-4.07476 4.07251,-7.82971 4.12783,-8.34434 0.0554,-0.51464 -0.94378,-2.29005 -2.22023,-3.94537 l -2.32079,-3.00967 2.28918,-2.45088 c 1.38976,-1.48792 3.023,-2.26273 4.15688,-1.97203 1.22318,0.31358 3.7421,-1.11978 7.29897,-4.15338 6.86251,-5.85291 8.60526,-8.25189 6.7027,-9.22674 -1.60361,-0.82168 -1.3222,-5.85858 0.47451,-8.4933 3.05112,-4.47422 7.55679,0.8612 5.61681,6.65115 -0.49067,1.46441 -0.42411,3.52332 0.15233,4.71319 1.26063,2.60209 0.0476,3.82429 -1.85352,1.86751 -1.20552,-1.24081 -2.41799,-0.62177 -8.84178,4.51419 l -7.44473,5.9522 1.7044,2.25562 c 2.24882,2.97612 2.14445,3.36128 -2.25613,8.32677 -3.51213,3.96299 -7.69123,12.16801 -6.77601,13.30371 0.58446,0.7253 18.52671,-3.77026 24.72527,-7.37588 6.19855,-3.60561 9.08594,-7.25115 14.23961,-10.64923 l -0.89938,-3.73836 c -0.49465,-2.05611 -2.62354,-8.73786 -4.73085,-14.84835 -3.94358,-11.43507 -4.32487,-15.14092 -1.83871,-17.87207 1.30632,-1.43504 1.83395,-1.00485 5.87117,4.78683 2.43974,3.49997 4.40778,6.62493 4.37345,6.94437 -0.0344,0.31943 -1.15346,0.17882 -2.48693,-0.31247 l -2.42449,-0.89328 1.2457,3.94074 c 5.19863,16.44543 5.46359,19.62871 2.13731,25.67595 -3.94153,7.16577 -16.73851,15.17429 -32.6124,19.6838 -4.68639,1.33133 -7.27123,1.7766 -10.17879,2.3665 -1.24322,1.00185 -0.47028,9.08899 0.83462,12.45493 1.71655,4.42786 3.47832,5.9638 7.36284,6.41912 4.72172,0.55344 11.25372,-3.41947 20.99567,-12.77006 15.27984,-14.66599 19.36679,-17.09115 39.50784,-23.44362 11.80703,-3.72392 14.28219,-4.83802 14.21765,-6.39948 -0.32218,-7.79471 0.7609,-19.13813 2.11166,-22.11569 3.00217,-6.61795 10.36586,-8.62143 14.00182,-3.80955 6.43732,8.5193 3.76597,23.74968 -5.34847,30.49378 -2.18712,1.61833 -2.60688,2.44771 -1.99926,3.95023 2.63638,6.51925 17.17375,8.16335 23.94361,2.70789 2.55325,-2.05754 2.50572,1.03854 1.19656,-77.93559 -0.89642,-54.07567 -0.83027,-59.97575 0.69794,-62.25951 l 1.68818,-2.52284 1.97678,5.22134 c 2.11595,5.58894 4.87042,15.47115 4.71563,16.91838 -0.0517,0.48344 -0.88303,-0.006 -1.84742,-1.08771 -1.72835,-1.93859 -1.75972,-1.90551 -2.19418,2.31352 -0.62571,6.07659 -0.64149,26.2093 -0.0535,68.49726 0.28088,20.19717 0.27643,38.9005 -0.01,41.56295 -1.25763,11.69725 -6.51309,18.72917 -15.188,20.3218 -2.82633,0.51888 -6.01406,0.84933 -7.08386,0.7343 -3.81514,-0.41017 -9.48655,-4.88413 -11.47952,-9.05577 -1.08434,-2.26971 -2.54133,-4.1999 -3.23773,-4.28931 -1.76322,-0.22642 -16.90833,4.29328 -26.73537,7.97844 -9.49564,3.56091 -14.29408,6.90363 -27.60347,19.2291 -13.44488,12.45092 -18.2365,14.33923 -24.99143,9.84871 z M 85.470149,292.25313 c 1.23226,-0.4839 6.33641,-4.02452 11.34253,-7.86803 10.346041,-7.94332 14.451531,-9.81422 32.501171,-14.81109 14.32491,-3.96571 23.19845,-7.11061 27.00942,-9.57248 l 2.53397,-1.63694 -2.23407,-5.5618 c -2.35292,-5.85771 -16.98155,-24.74392 -20.29477,-26.20145 -2.37936,-1.04671 -8.77548,2.75132 -24.55525,14.58096 -11.33786,8.49966 -25.701091,16.88864 -28.416211,16.59673 -2.67068,-0.28714 -9.703004,13.56495 -10.459741,20.60333 -1.081724,10.06131 5.04936,16.82527 12.572951,13.87077 z m -0.79561,-11.93294 c -1.35199,-1.67776 -0.59866,-7.3031 1.53045,-11.42818 l 1.68145,-3.25774 -1.03347,4.50087 c -1.31721,5.73663 -0.77851,8.29938 1.43587,6.83074 1.30096,-0.86283 1.53942,-0.71995 1.37355,0.82298 -0.19156,1.78168 -2.12839,4.01768 -3.36497,3.88473 -0.3205,-0.0344 -1.05079,-0.64349 -1.62288,-1.3534 z m 20.086231,-12.94198 c -1.00359,-1.96042 -2.64128,-3.6522 -3.63928,-3.7595 -2.286401,-0.24582 -4.007401,-2.76222 -3.349911,-4.89812 0.92977,-3.02036 3.057811,-2.21879 6.479771,2.44075 l 3.40205,4.63242 0.45062,-4.19105 c 0.73985,-6.88142 3.95662,-9.73758 6.55488,-5.82002 0.84131,1.26849 0.79505,1.863 -0.20781,2.67114 -1.00286,0.80815 -1.45137,0.70233 -2.01519,-0.47546 -1.14557,-2.39303 -2.08398,-0.81693 -3.51979,5.91158 -0.73345,3.43703 -1.55788,6.42993 -1.83209,6.65091 -0.27421,0.22097 -1.31967,-1.20222 -2.32325,-3.16266 z m 29.8426,-12.12943 -2.76798,-3.43485 -2.33465,2.39031 c -2.98069,3.05174 -4.17157,2.87345 -7.22098,-1.08106 -2.47582,-3.2107 -2.47604,-3.21404 -0.43466,-6.5282 2.21325,-3.59312 2.20609,-3.59493 7.15676,1.795 l 2.0453,2.22678 2.94773,-2.91128 2.94774,-2.91127 3.40624,4.33148 3.40628,4.33147 -2.23259,2.4041 c -3.1096,3.34843 -3.77479,3.28955 -6.91919,-0.61248 z m 99.90909,43.18044 c 2.03725,-1.76024 2.31762,-2.6113 1.93992,-5.88906 -0.45733,-3.96895 -4.25708,-9.91695 -6.48851,-10.15686 -0.70129,-0.0754 -2.24316,0.64302 -3.42635,1.59648 -2.80407,2.25966 -3.48122,8.5245 -1.55228,14.36467 1.43054,4.33193 1.4691,4.36118 4.29483,3.2568 1.56825,-0.61293 3.92298,-2.04032 5.23278,-3.17199 z M 162.8004,274.89618 c -1.44308,-1.79078 -2.53158,-0.28278 -1.2216,1.69237 0.7923,1.19458 1.30463,1.38215 1.6589,0.60735 0.28191,-0.61656 0.0851,-1.65144 -0.4373,-2.29972 z M 87.355639,248.139 c 6.98634,-3.47736 16.841491,-10.12008 30.772401,-20.74167 l 11.41779,-8.7055 -10.92905,-10.34072 C 97.550729,188.41909 94.198169,185.30745 93.717919,185.24178 c -1.06418,-0.14555 -8.83822,10.52085 -9.77285,13.40884 -1.19505,3.69269 -0.77255,9.00445 0.72906,9.1659 0.59083,0.0635 2.18793,-0.72603 3.54911,-1.75454 1.91338,-1.44579 2.43873,-1.53419 2.31568,-0.38966 -0.21803,2.02792 -6.23652,8.55718 -9.36177,10.15626 -2.969351,1.51932 -9.54831,12.90048 -11.122186,19.24068 -3.109849,12.52765 5.429353,18.97854 17.300676,13.06974 z m 2.63732,-18.72788 c 15.193271,-12.70976 14.295061,-11.56224 12.576651,-16.06765 -1.63807,-4.29479 -0.94243,-7.21593 2.00193,-8.40663 3.27086,-1.32273 4.69654,0.1502 4.24156,4.38208 -0.22687,2.11013 0.20239,5.23629 0.95392,6.94701 1.55011,3.52862 0.45598,5.30514 -1.65445,2.68625 -1.28423,-1.59365 -1.74334,-1.36172 -5.70766,2.88335 -4.241531,4.54192 -12.692121,10.82921 -19.332491,14.38344 -1.85926,0.99518 1.25498,-2.06835 6.92054,-6.80785 z m 16.457121,-19.76449 c -0.23703,-0.89355 -0.92298,-1.3891 -1.52433,-1.10123 -0.75083,0.35944 -0.77791,0.99898 -0.0864,2.04159 1.22838,1.85211 2.20094,1.28434 1.61077,-0.94036 z m 66.72517,141.18831 c -1.1948,-1.07071 -1.18766,-1.1372 0.0643,-0.59832 2.33207,1.00375 6.21329,-0.41848 5.764,-2.11216 -0.22037,-0.83071 0.0227,-1.46487 0.54003,-1.40927 0.51739,0.0557 0.82325,1.19376 0.6797,2.52918 -0.35926,3.34155 1.49794,3.24802 3.11136,-0.15672 0.78401,-1.65444 1.98353,-2.70224 2.9253,-2.55521 0.87801,0.13702 1.07443,0.40041 0.43649,0.58525 -0.63793,0.18484 -1.02524,1.23493 -0.8607,2.33355 0.39678,2.64912 3.35497,2.35343 4.05594,-0.40546 0.29933,-1.17808 0.93716,-2.09967 1.41741,-2.04805 0.48026,0.0517 0.52636,0.77075 0.10246,1.59806 -0.61279,1.19593 -0.32798,1.41428 1.38993,1.06566 3.49164,-0.70864 2.37403,0.49906 -2.01074,2.17275 -4.50109,1.71813 -15.26462,1.10757 -17.61549,-0.99926 z m -50.09029,-7.43905 c -1.16248,-1.44256 -0.88038,-5.9909 0.59324,-9.56405 0.83336,-2.02071 0.973,-1.72905 0.99191,2.07152 0.0193,3.85802 0.30075,4.42403 2.20324,4.42885 1.98344,0.005 2.05811,0.21343 0.82317,2.29899 -1.48595,2.50939 -3.0029,2.76095 -4.61156,0.76469 z m 50.36652,4.86976 c 0.0574,-0.53415 0.81847,-1.44476 1.69121,-2.02361 0.88515,-0.58708 1.54064,-0.62299 1.48239,-0.0812 -0.0575,0.53415 -0.8185,1.44477 -1.69125,2.02362 -0.88514,0.58707 -1.54061,0.62299 -1.48235,0.0812 z m 31.38205,-2.28759 c -0.69409,-1.97552 -2.41024,-4.251 -3.81367,-5.05659 -3.11827,-1.78999 -3.8308,-2.95288 -3.54558,-5.78694 0.4287,-4.25962 4.12748,-1.88393 7.62736,4.89895 l 2.09409,4.0584 1.19741,-4.91464 c 1.58606,-6.50968 3.21154,-8.31239 5.8642,-6.50344 1.09287,0.74525 1.8947,2.21372 1.78184,3.26326 -0.21718,2.02011 -1.69607,2.41544 -2.52873,0.67601 -1.21951,-2.54748 -3.30463,-1.24795 -3.69708,2.3042 -0.53817,4.87118 -2.22998,10.81262 -3.05362,10.72407 -0.36535,-0.0393 -1.23216,-1.68777 -1.92622,-3.66328 z m -20.21903,-5.59469 c 0.38754,-0.49869 1.1159,-0.86246 1.61853,-0.80843 0.50267,0.054 0.86691,0.53529 0.80947,1.06948 -0.0574,0.53415 -0.78576,0.89793 -1.61856,0.8084 -0.83276,-0.0895 -1.197,-0.5708 -0.80944,-1.06945 z m 39.08597,1.10526 c -0.76059,-1.58883 0.47779,-9.94547 1.87103,-12.62565 0.78112,-1.50268 0.80625,-0.5695 0.0851,3.16135 -1.24432,6.43749 -0.23937,9.33233 2.30101,6.62844 1.93332,-2.05779 2.11848,-0.1841 0.25225,2.55257 -1.34379,1.9705 -3.63287,2.11431 -4.5094,0.28329 z M 87.021749,311.74968 c -0.65171,-0.98263 -0.65408,-2.87871 -0.007,-5.17857 1.54806,-5.49788 3.10369,-6.81651 1.95317,-1.65564 -0.91705,4.11367 -0.82853,4.46436 1.18129,4.68045 1.58215,0.1701 1.96754,0.63389 1.41798,1.70646 -0.41508,0.81007 -0.77435,1.65563 -0.79836,1.87903 -0.1078,1.00273 -2.82027,-0.0335 -3.74761,-1.43173 z m 36.471211,-0.0123 c -0.91529,-2.01727 -2.67732,-3.96795 -4.03669,-4.46878 -1.74527,-0.64304 -2.3433,-1.53114 -2.16263,-3.21155 0.3562,-3.31321 2.52063,-2.65821 5.58121,1.689 1.44051,2.04606 2.85098,3.74503 3.13438,3.77551 0.28339,0.0304 0.72981,-1.94002 0.99203,-4.37888 0.64366,-5.98694 2.3176,-8.40064 4.69953,-6.77633 0.98573,0.6722 1.69822,2.09627 1.58338,3.1646 -0.17411,1.61945 -0.50323,1.74167 -1.97931,0.73506 -0.97376,-0.66405 -2.01774,-1.23394 -2.31994,-1.26643 -0.3022,-0.0325 -0.87559,2.97443 -1.27423,6.68206 -0.39862,3.70763 -1.14522,6.94241 -1.65912,7.18842 -0.51386,0.24601 -1.66526,-1.1637 -2.55861,-3.13268 z m -13.0002,-12.3049 c -3.74234,-4.64399 0.75926,-7.77135 19.30087,-13.40867 8.51862,-2.58998 15.45293,-4.37901 15.40954,-3.97561 -0.1808,1.68179 -4.47285,3.62914 -15.80954,7.17293 -6.60181,2.06368 -13.32647,4.37393 -14.94374,5.13389 -2.65188,1.2461 -2.82674,1.57846 -1.78147,3.38611 2.11441,3.65658 0.45043,4.95015 -2.17566,1.69135 z m 48.65912,2.34237 c -0.53201,-2.00548 1.55841,-9.93267 2.77252,-10.51388 1.72713,-0.82678 6.46913,3.1559 6.82956,5.73596 0.67024,4.79761 -8.39965,9.31069 -9.60208,4.77792 z m 6.52354,-1.92573 c 0.9843,-0.79321 0.95492,-1.47017 -0.12864,-2.96113 -0.77258,-1.06304 -1.96308,-1.99285 -2.64556,-2.06622 -1.44142,-0.15497 -3.11806,3.1134 -2.38385,4.64708 0.68087,1.42232 3.59803,1.6374 5.15805,0.38027 z m 78.70612,7.00774 c -0.77173,-0.95767 0.31006,-9.00231 1.60612,-11.944 0.80809,-1.83407 0.90484,-1.36533 0.44419,2.15133 -0.63599,4.85531 0.96981,8.96133 2.66971,6.82624 0.72151,-0.90626 0.90117,-0.83032 0.78772,0.33294 -0.26894,2.75751 -3.97846,4.53121 -5.50774,2.63349 z m -39.98547,-10.23807 c 0.91964,-1.34855 1.03428,-2.72448 0.42328,-5.07973 -0.76954,-2.9665 -0.62396,-3.36081 1.78308,-4.83001 3.31978,-2.02626 4.13234,-1.94986 3.88347,0.36517 -0.15085,1.40297 -0.67945,1.66909 -2.18209,1.09855 -1.57041,-0.59628 -1.94577,-0.36198 -1.80394,1.12606 0.14678,1.5405 0.95145,1.9254 4.46654,2.13649 4.17548,0.25075 4.23361,0.29803 2.22508,1.81018 -1.1343,0.85399 -3.86113,2.3785 -6.05954,3.38779 -3.79195,1.74086 -3.93238,1.74011 -2.73588,-0.0145 z m 67.60406,0.10835 c -0.10285,-1.90224 0.0399,-9.84462 0.31713,-17.64972 0.27727,-7.8051 0.0227,-28.58088 -0.56581,-46.16838 -0.8581,-25.64653 -0.8007,-32.43195 0.28996,-34.2738 1.34195,-2.26621 1.39639,-2.21794 4.12785,3.65903 2.7955,6.01471 4.97656,12.37897 4.80122,14.00983 -0.0531,0.49401 -0.87949,0.35203 -1.86582,-0.32058 -0.97376,-0.66404 -1.97615,-1.22946 -2.22751,-1.25649 -0.5795,-0.0623 -0.53355,3.64778 0.3532,28.52857 0.88449,24.81682 -0.49265,47.7349 -3.19673,53.19895 l -1.84651,3.73121 z m -31.8937,-33.08895 -3.42575,-3.50249 -2.36425,2.38877 c -1.30036,1.31383 -2.66043,2.35694 -3.0224,2.31803 -0.36198,-0.0389 -2.0517,-1.58732 -3.75494,-3.4409 -3.20922,-3.49245 -3.17306,-4.04033 0.52927,-8.02048 1.42548,-1.53244 1.6942,-1.43423 5.00095,1.8279 3.7205,3.67028 3.99976,3.63353 7.35538,-0.96831 1.23365,-1.69179 3.57285,-0.15965 6.08177,3.98345 l 2.17938,3.59895 -2.37865,2.6801 c -1.30825,1.47407 -2.46783,2.67052 -2.57683,2.65881 -0.109,-0.0117 -1.73977,-1.59744 -3.62393,-3.52383 z m -39.79717,-9.83826 c 0.12441,-1.15691 13.75491,-7.68137 14.39305,-6.88946 0.68807,0.85385 -2.29738,2.72946 -8.58307,5.39226 -3.2552,1.37902 -5.86969,2.05276 -5.80998,1.4972 z m -19.12818,-9.44009 c -1.16046,-2.26802 -1.1117,-3.36483 0.35144,-7.90439 2.0417,-6.33463 2.91602,-6.88057 1.42959,-0.89266 -1.22731,4.94412 0.0303,8.21556 2.52255,6.56255 2.35838,-1.56417 1.50034,1.62918 -0.90806,3.37951 -1.96037,1.42471 -2.10576,1.37567 -3.39552,-1.14501 z m 55.29346,2.02123 c 0.54482,-5.0674 0.33111,-19.29426 -0.30252,-20.13824 -0.14283,-0.19023 -2.25849,0.79807 -4.70152,2.19623 -6.57505,3.76295 -6.97621,2.91506 -0.82092,-1.73518 l 5.40732,-4.08519 -0.51655,-21.66908 c -0.28411,-11.918 -0.79669,-25.88718 -1.1391,-31.04262 -0.6002,-9.03748 0.21643,-15.05566 2.16989,-15.9908 1.04291,-0.49926 6.84935,14.79291 7.38427,19.44757 0.33445,2.91037 0.29992,2.93704 -1.39586,1.07797 -0.95635,-1.04842 -1.93979,-1.92781 -2.18545,-1.95423 -0.37689,-0.0405 -0.1404,8.80288 1.10556,41.33586 l 0.16827,4.3938 2.02336,-2.15739 c 1.80586,-1.92547 1.9063,-2.45903 0.9346,-4.96327 -1.93708,-4.9921 -0.29795,-8.71303 3.65123,-8.28844 4.61934,0.49665 2.59781,10.58782 -3.12516,15.60017 l -3.27587,2.86909 -1.64691,14.26502 c -1.15314,9.98787 -2.05005,14.58979 -2.99144,15.3482 -1.07554,0.86652 -1.22421,-0.0355 -0.7432,-4.50947 z m 11.95504,-38.0931 c 0.0828,-0.76972 -0.22936,-1.69468 -0.69355,-2.05546 -1.07794,-0.83776 -2.43479,0.85602 -1.78052,2.2227 0.7377,1.54105 2.30177,1.43533 2.47407,-0.16724 z m 33.04372,43.80507 c -1.17371,-2.29391 -1.13831,-3.58073 0.23744,-8.63176 l 1.6168,-5.93597 -0.42424,5.35777 c -0.46539,5.87784 0.31028,8.5392 2.22212,7.62399 0.85157,-0.40764 1.06275,0.089 0.67582,1.5891 -0.80663,3.12723 -2.72696,3.12584 -4.32794,-0.003 z m -36.62391,-4.09795 c -0.83014,-1.03014 0.60106,-12.00031 1.94248,-14.88911 0.75089,-1.61705 0.76534,-0.93691 0.0468,2.20293 -1.46491,6.40116 -0.86605,9.77831 1.64356,9.26899 1.70613,-0.34625 1.82482,-0.11294 0.89524,1.7597 -1.08507,2.18586 -3.41501,3.03873 -4.52807,1.65749 z m -40.60976,-19.95655 c -0.99431,-2.99614 -0.26831,-10.83309 1.26145,-13.6172 0.63533,-1.15627 0.62343,0.13799 -0.0315,3.43512 -0.76276,3.83976 -0.70236,5.86664 0.2204,7.39195 1.27137,2.10156 1.27137,2.10156 3.01417,0.32407 1.66944,-1.70263 1.71649,-1.63551 1.11741,1.59379 -0.81,4.3666 -4.24417,4.90324 -5.58187,0.87227 z m -24.0544,-22.90989 c -1.55643,-2.1603 -3.77223,-4.16691 -4.92398,-4.45913 -1.32617,-0.33649 -2.12176,-1.34554 -2.16953,-2.75166 -0.0697,-2.05234 0.12333,-2.11977 2.55189,-0.89117 1.44502,0.73103 3.70593,2.60494 5.02421,4.16424 l 2.39689,2.83509 0.33799,-3.14355 c 0.4562,-4.24326 3.47185,-8.69962 5.26524,-7.7807 2.25848,1.15722 1.35575,4.10428 -1.14726,3.74547 -1.99503,-0.28598 -2.27423,0.21113 -3.34127,5.94859 l -1.16432,6.26063 z m -37.72063,-4.31198 c -0.83932,-2.38893 -2.31085,-4.13601 -4.3025,-5.10812 -3.08656,-1.50654 -4.48055,-4.91073 -2.62366,-6.40711 1.44793,-1.16679 4.88475,1.4065 6.82991,5.11383 0.88603,1.68871 1.88451,3.10106 2.2188,3.13856 0.33433,0.0375 1.06986,-2.33612 1.6345,-5.27471 1.09245,-5.6851 3.44122,-8.6033 5.90743,-7.33964 0.80789,0.41396 1.34956,1.86269 1.2037,3.21938 -0.24007,2.23292 -0.4397,2.33078 -2.10586,1.03247 -2.66102,-2.07351 -3.855,-0.10662 -4.72083,7.77683 -0.39244,3.5732 -1.17533,6.71779 -1.73972,6.98798 -0.56438,0.27017 -1.6002,-1.14259 -2.30177,-3.13947 z m -23.61132,-16.20986 c -1.37228,-1.24919 -1.44537,-2.40133 -0.46356,-7.30688 0.64108,-3.20312 1.72494,-6.57994 2.4086,-7.50404 0.96192,-1.30027 0.99989,-0.66689 0.16779,2.80112 -1.36906,5.70613 -0.85627,9.92991 1.14118,9.40003 1.85632,-0.49244 1.69349,1.89201 -0.21567,3.15824 -1.04057,0.69011 -1.83527,0.54665 -3.03834,-0.54847 z m 105.4798,10.84076 c -1.02532,-2.53546 -0.27758,-9.95309 1.18802,-11.78533 0.75045,-0.93817 0.79511,-0.29275 0.14466,2.09128 -1.11085,4.07159 0.19292,8.18497 2.40803,7.59735 1.10709,-0.29369 1.36438,0.16894 0.96596,1.73688 -0.70378,2.7696 -3.64132,2.99417 -4.70667,0.35982 z m -86.2897,-13.94449 c -1.01311,-1.25721 0.47429,-10.38455 2.26184,-13.87982 1.58752,-3.10411 1.60689,-2.94745 0.40689,3.29017 -1.18467,6.15791 -1.13595,6.59658 0.8148,7.33728 2.57273,0.97685 1.94323,3.84256 -0.86611,3.94312 -1.10164,0.0395 -2.27949,-0.27138 -2.61742,-0.69075 z m 62.83756,-5.85942 c -1.28546,-1.93819 0.5957,-9.2236 2.51293,-9.7322 1.80375,-0.47849 4.91255,1.74871 5.92071,4.24165 1.9689,4.8687 -5.58461,9.78624 -8.43364,5.49055 z m 5.99523,-1.78566 c 1.23418,-0.60698 1.29982,-1.01794 0.3833,-2.39983 -1.77997,-2.68381 -4.70891,-2.46855 -5.01391,0.36849 -0.27525,2.55997 1.74959,3.44822 4.63061,2.03134 z m -32.96258,-4.32701 c -0.47931,-1.82954 -0.25373,-4.21674 0.66622,-7.05102 l 1.3909,-4.28501 -0.41596,4.94931 c -0.46401,5.52045 0.0475,6.81398 2.14435,5.42326 1.55399,-1.03067 1.7401,0.0303 0.44765,2.55268 -1.18012,2.30322 -3.43525,1.45661 -4.23316,-1.58922 z m -49.21246,-22.08111 c 1.14001,-1.04757 4.60676,-2.75069 7.70389,-3.78472 8.19938,-2.7375 35.65305,-9.67628 36.09833,-9.12368 1.28819,1.59854 -10.73556,5.50487 -44.35812,14.41126 -1.08779,0.28815 -0.93053,-0.13696 0.5559,-1.50286 z"
       id="path_back"
       inkscape:connector-curvature="0"
       sodipodi:nodetypes="cscssscsssssssscscsssscssssscssssscssssssssssscssscsccssssssccssscscssscssssssscscscscssssssscssczcsssscscssscsssssssssssscscssscscscssccsssscsssssscscssccccssscssssscccscsssscccccsscssscsccsssssscscscssssssssssssssccsccccsccscssscscsccsscccscscscccsscscccsccccccccssscccccssccccccsscsscscsccsscssssssssssscsscscsscsccscssscssssscscsscsscscssssscscscsscssscssscsscssssscscsssscscscccccscscscccsssscccscsscccsccsscsssscsssssccsssscscscsscccssssccsssccsssssscscccssccsscss" />
  </g>
  <g
     transform="translate(-51.256451,-118.6709)"
     id="layer_front"
     inkscape:groupmode="layer"
     inkscape:label="Front">
    <path
       style="fill:#000000"
       d="m 205.75,53.25 -1.6875,2.53125 c -1.52821,2.28376 -1.58392,8.17433 -0.6875,62.25 1.30916,78.97413 1.36575,75.87996 -1.1875,77.9375 -6.76986,5.45546 -21.30112,3.8005 -23.9375,-2.71875 -0.60762,-1.50252 -0.18712,-2.31917 2,-3.9375 9.11444,-6.7441 11.78107,-21.9807 5.34375,-30.5 -3.63596,-4.81188 -10.99783,-2.80545 -14,3.8125 -1.35076,2.97756 -2.44718,14.33029 -2.125,22.125 0.0645,1.56146 -2.41172,2.65108 -14.21875,6.375 -20.14105,6.35247 -24.22016,8.80276 -39.5,23.46875 -9.74195,9.35059 -16.27828,13.30344 -21,12.75 -3.88452,-0.45532 -5.65845,-1.97839 -7.375,-6.40625 -1.287146,-3.32014 -1.434093,-6.755 -0.375,-12.21875 5.146824,-1.0359 10.100828,-2.42418 14.40625,-3.875 13.26247,-4.59901 23.99597,-11.24048 27.9375,-18.40625 3.32628,-6.04724 3.07363,-9.24207 -2.125,-25.6875 l -1.25,-3.9375 2.40625,0.90625 c 1.33347,0.49129 2.4656,0.63193 2.5,0.3125 0.0343,-0.31944 -1.93526,-3.46878 -4.375,-6.96875 -4.03722,-5.79168 -4.56868,-6.21629 -5.875,-4.78125 -2.48616,2.73115 -2.09983,6.43993 1.84375,17.875 2.10731,6.11049 4.2241,12.78764 4.71875,14.84375 l 0.90625,3.75 c -11.60946,10.12348 -27.12902,15.64427 -39.59375,18.46875 0.936813,-3.60208 2.520197,-7.47803 5.96875,-11.8125 5.89329,-7.40726 5.93632,-7.30513 3.6875,-10.28125 0,0 -1.31508,-1.5125 -1.6875,-2.25 -0.37242,-0.7375 -0.98087,-1.5673 -2.125,-1.8125 -1.14413,-0.2452 -2.76649,0.48083 -4.15625,1.96875 l -2.28125,2.4375 2.3125,3.03125 c 1.27645,1.65532 2.27415,3.42286 2.21875,3.9375 -0.05532,0.51463 -1.91002,4.26899 -4.125,8.34375 0,0 -2.146376,3.91887 -3.40625,7.1875 -1.968013,0.3853 -3.836105,0.71503 -5.5625,0.96875 -13.09154,1.924 -24.77491,-3.60884 -28.75,-10.6875 -2.322811,-4.13637 -3.72178,-11.34323 -3.1875,-16.3125 0.34153,-3.17651 0.752867,-5.66296 1.15625,-9.8125 -2.991548,6.75412 -3.493975,10.93045 -4.09375,19.03125 -0.599775,8.1008 2.555029,16.36747 10.4375,21.5625 6.647414,4.36064 17.491108,4.43961 28.15625,2.71875 -0.368008,2.55017 -0.547754,5.55126 -0.21875,9.125 0.62712,6.81186 3.61884,9.17308 9.1875,12.875 6.75493,4.49052 11.55512,2.60717 25,-9.84375 13.30939,-12.32547 18.09811,-15.65784 27.59375,-19.21875 9.82704,-3.68516 24.98678,-8.22642 26.75,-8 0.6964,0.0894 2.13441,2.04279 3.21875,4.3125 1.99297,4.17164 7.68486,8.62108 11.5,9.03125 1.0698,0.11503 4.23617,-0.19987 7.0625,-0.71875 8.67491,-1.59263 13.92987,-8.61525 15.1875,-20.3125 0.28643,-2.66245 0.31213,-21.36533 0.0312,-41.5625 -0.58799,-42.28796 -0.59446,-62.42341 0.0312,-68.5 0.43446,-4.21903 0.4904,-4.25109 2.21875,-2.3125 0.96439,1.08171 1.79205,1.54594 1.84375,1.0625 0.15479,-1.44723 -2.6028,-11.31731 -4.71875,-16.90625 l -2,-5.21875 z m -61.78125,9.5 c -1.13638,0.165424 -2.14159,2.447537 -2.5,5.78125 -0.17462,1.62403 -0.0968,17.17535 0.15625,34.5625 0.1738,31.78288 0.14905,32.80281 0.0937,37.8125 -0.0864,10.86529 1.57369,3.53067 0.0937,33.75 -0.14101,11.37913 0.11988,13.94675 1.75,10.3125 0.92482,-2.06192 2.5458,-9.47204 3.59375,-16.5 0,0 0.87064,-6.33241 1.34375,-9.34375 0.47312,-3.01134 -0.18939,-11.53598 -0.53125,-15.59375 -0.34186,-4.05777 -0.27072,-12.3196 -0.59375,-29.375 C 147.052,97.10084 146.89446,82.3305 147,81.3125 c 0.18458,-1.78946 0.24238,-1.77632 1.9375,0.125 1.6967,1.90308 1.77093,1.9025 1.96875,0.0625 0.26401,-2.45564 -5.50236,-18.62258 -6.6875,-18.75 -0.0768,-0.0083 -0.17424,-0.01103 -0.25,0 z m 78,15.8125 c -0.35019,0.01356 -0.68427,0.556421 -1.1875,1.40625 -1.09066,1.84185 -1.13935,8.63472 -0.28125,34.28125 0.58851,17.5875 0.83977,38.35115 0.5625,46.15625 -0.27723,7.8051 -0.41535,15.75401 -0.3125,17.65625 l 0.1875,3.4375 1.84375,-3.71875 c 2.70408,-5.46405 4.07199,-28.37068 3.1875,-53.1875 C 225.082,99.71296 225.0455,96.0002 225.625,96.0625 c 0.25136,0.02703 1.24499,0.58596 2.21875,1.25 0.98633,0.67261 1.8219,0.80651 1.875,0.3125 0.17534,-1.63086 -2.017,-7.98529 -4.8125,-14 -1.70716,-3.673106 -2.35386,-5.085102 -2.9375,-5.0625 z m -43.8125,55.1875 c -0.43043,0.0352 -0.80919,0.39408 -1.34375,0.96875 -3.70233,3.98015 -3.74047,4.50755 -0.53125,8 1.70324,1.85358 3.38802,3.3986 3.75,3.4375 0.36197,0.0389 1.73089,-0.99867 3.03125,-2.3125 l 2.375,-2.375 3.40625,3.5 c 1.88416,1.92639 3.516,3.51955 3.625,3.53125 0.109,0.0117 1.2855,-1.18218 2.59375,-2.65625 l 2.375,-2.6875 -2.1875,-3.59375 c -2.50892,-4.1431 -4.8601,-5.69179 -6.09375,-4 -3.35562,4.60184 -3.62325,4.63903 -7.34375,0.96875 -2.06672,-2.03883 -2.93887,-2.8399 -3.65625,-2.78125 z m 0.25,29.96875 c 0.11159,-0.0143 0.22484,-0.009 0.3125,0 2.23143,0.23991 6.01142,6.1873 6.46875,10.15625 0.3777,3.27776 0.0998,4.11476 -1.9375,5.875 -1.3098,1.13167 -3.6505,2.57457 -5.21875,3.1875 -2.82573,1.10438 -2.88196,1.05068 -4.3125,-3.28125 -1.92894,-5.84017 -1.24157,-12.08409 1.5625,-14.34375 1.03529,-0.83428 2.34389,-1.49372 3.125,-1.59375 z"
       transform="translate(51.256451,118.6709)"
       id="path_front"
       inkscape:connector-curvature="0" />
  </g>
</svg>
